HIERARCHY
ROOT Hips
{
  OFFSET -125.086 92.215 135.881
  CHANNELS 6 Xposition Yposition Zposition Zrotation Xrotation Yrotation
  JOINT LeftUpLeg
  {
    OFFSET 8.64259 1.95398 -2.38835
    CHANNELS 3 Zrotation Xrotation Yrotation
    JOINT LeftLeg
    {
      OFFSET 43.7702 0 0
      CHANNELS 3 Zrotation Xrotation Yrotation
      JOINT LeftFoot
      {
        OFFSET 40.6238 0 0
        CHANNELS 3 Zrotation Xrotation Yrotation
        JOINT LeftToeBase
        {
          OFFSET 12.7242 0 0
          CHANNELS 3 Zrotation Xrotation Yrotation
          End Site
          {
            OFFSET 0 0 0
          }
        }
      }
    }
  }
  JOINT RightUpLeg
  {
    OFFSET -8.2249 1.95398 -2.59336
    CHANNELS 3 Zrotation Xrotation Yrotation
    JOINT RightLeg
    {
      OFFSET 43.5653 0 0
      CHANNELS 3 Zrotation Xrotation Yrotation
      JOINT RightFoot
      {
        OFFSET 40.6238 0 0
        CHANNELS 3 Zrotation Xrotation Yrotation
        JOINT RightToeBase
        {
          OFFSET 12.7242 0 0
          CHANNELS 3 Zrotation Xrotation Yrotation
          End Site
          {
            OFFSET 0 0 0
          }
        }
      }
    }
  }
  JOINT Spine
  {
    OFFSET 0.165834 0.87714 6.61349
    CHANNELS 3 Zrotation Xrotation Yrotation
    JOINT Spine1
    {
      OFFSET 7.38963 1.71661e-005 0
      CHANNELS 3 Zrotation Xrotation Yrotation
      JOINT Spine2
      {
        OFFSET 11.9445 1.14441e-005 0
        CHANNELS 3 Zrotation Xrotation Yrotation
        JOINT Spine3
        {
          OFFSET 14.7254 4.19617e-005 0
          CHANNELS 3 Zrotation Xrotation Yrotation
          JOINT Spine4
          {
            OFFSET 10.9679 0 0
            CHANNELS 3 Zrotation Xrotation Yrotation
            JOINT RightShoulder
            {
              OFFSET 2.46616 -1.6653 3.69651
              CHANNELS 3 Zrotation Xrotation Yrotation
              JOINT RightArm
              {
                OFFSET 13.0012 0 0
                CHANNELS 3 Zrotation Xrotation Yrotation
                JOINT RightForeArm
                {
                  OFFSET 28.7848 1.52588e-005 0
                  CHANNELS 3 Zrotation Xrotation Yrotation
                  JOINT RightHand
                  {
                    OFFSET 26.5688 1.52588e-005 0
                    CHANNELS 3 Zrotation Xrotation Yrotation
                    End Site
                    {
                      OFFSET 0 0 0
                    }
                  }
                }
              }
            }
            JOINT LeftShoulder
            {
              OFFSET 2.38034 -1.29275 -3.7523
              CHANNELS 3 Zrotation Xrotation Yrotation
              JOINT LeftArm
              {
                OFFSET 16.3182 6.10352e-005 0
                CHANNELS 3 Zrotation Xrotation Yrotation
                JOINT LeftForeArm
                {
                  OFFSET 27.0901 0 0
                  CHANNELS 3 Zrotation Xrotation Yrotation
                  JOINT LeftHand
                  {
                    OFFSET 24.5451 1.52588e-005 0
                    CHANNELS 3 Zrotation Xrotation Yrotation
                    End Site
                    {
                      OFFSET 0 0 0
                    }
                  }
                }
              }
            }
            JOINT Neck
            {
              OFFSET 5.0226 -0.0266342 0
              CHANNELS 3 Zrotation Xrotation Yrotation
              JOINT Head
              {
                OFFSET 6.69363 2.86102e-005 0
                CHANNELS 3 Zrotation Xrotation Yrotation
                End Site
                {
                  OFFSET 0 0 0
                }
              }
            }
          }
        }
      }
    }
  }
}
MOTION
Frames:	7
Frame Time:	0.0416667
242.686 71.5935 246.884 -111.168 17.9691 -66.4143 -110.795 10.2829 171.538 178.296 51.2109 172.487 45.4482 -12.8317 8.07233 99.5594 -4.07636 4.33171 163.164 25.7273 95.4901 -75.738 47.2935 3.95735 -147.079 -35.2848 131.831 149.574 22.2851 34.5289 -3.89491 16.4811 -91.4212 -6.29801 -8.14034 -3.80966 -17.9479 -8.30002 -3.44593 -40.5876 -6.62007 -6.0845 -20.575 -6.62006 -6.08448 -131.78 -51.3171 61.1293 -61.1708 -19.3571 -40.1255 -174.193 -2.61268 -33.8119 -10.4622 3.62964 -45.7757 138.513 -8.48744 -70.188 -7.56026 28.8703 -148.978 -165.415 80.4135 179.919 -162.769 -24.3023 -0.124059 137.859 -41.9388 21.7443 -65.6734 -41.7167 -19.3592 
243.323 71.6585 247.442 -110.762 17.1849 -66.4138 -111.582 11.8388 171.545 177.933 50.5067 172.707 46.8018 -12.28 8.2469 98.0352 -3.90123 4.48476 163.088 25.938 95.2144 -75.7233 46.5435 4.87682 -146.245 -35.8332 133.568 148.156 24.0318 36.2412 -3.90748 16.4948 -91.5622 -6.33984 -8.20837 -4.0946 -17.9901 -8.38046 -3.72766 -40.6199 -6.59978 -6.37586 -20.6072 -6.59977 -6.37585 -131.578 -51.1404 61.3529 -61.1557 -18.3919 -40.1591 -171.368 1.84745 -33.9607 -11.7509 4.0655 -45.5122 136.943 -7.98635 -70.911 -7.55838 30.0994 -147.914 -166.047 78.2744 179.933 -162.208 -21.5606 -0.509958 138.424 -40.9545 22.1273 -65.9303 -42.0354 -19.4679 
245.138 71.8412 249.034 -109.614 14.9529 -66.3857 -113.802 16.0112 171.584 176.922 48.0832 173.367 50.9156 -10.5955 9.04942 93.2479 -3.07355 5.61887 163.021 26.4769 94.3334 -75.5192 44.5301 7.48781 -144.054 -37.2296 138.421 144.37 27.8896 40.5531 -3.94026 16.526 -91.9651 -6.44552 -8.39622 -4.90705 -18.0971 -8.60377 -4.53128 -40.7031 -6.5364 -7.20444 -20.6905 -6.53641 -7.20444 -131.017 -50.6397 61.9741 -61.1122 -15.673 -40.2817 -155.749 23.8605 -38.2445 -18.1966 6.70699 -46.929 131.92 -6.65884 -73.0518 -7.86887 34.1736 -144.479 -167.766 74.4188 179.95 -160.666 -16.1881 -1.26599 139.924 -38.0846 23.091 -66.6447 -42.9378 -19.64 
247.984 72.1135 251.535 -107.852 11.4801 -66.2445 -117.205 21.8127 171.732 175.42 43.0752 174.57 58.1826 -7.35761 11.2521 84.2276 -1.24931 9.32709 163.399 27.1108 92.6665 -74.7451 41.7892 11.5993 -141.175 -39.053 145.715 139.317 31.7516 45.9374 -3.98207 16.5525 -92.5969 -6.57087 -8.67191 -6.17492 -18.2256 -8.93475 -5.78632 -40.7855 -6.42184 -8.49131 -20.7728 -6.42185 -8.49132 -130.192 -49.8603 62.8958 -61.0473 -11.5085 -40.5555 -87.5948 55.4668 -88.0452 -23.3949 11.6439 -58.2307 122.187 -4.83493 -76.6778 -9.82746 42.3729 -137.368 -170.33 72.319 179.955 -158.6 -12.225 -1.80789 142.015 -33.4104 24.2365 -67.7331 -44.3033 -19.4533 
251.732 72.4308 254.835 -105.618 7.03138 -65.8851 -121.545 28.2369 171.974 173.765 35.2318 176.31 68.9502 -1.47859 15.0167 69.436 0.460535 16.1724 164.813 27.4871 90.0057 -72.9356 39.1078 17.0554 -138.39 -41.0688 154.688 134.094 34.6822 51.242 -4.02142 16.5478 -93.4151 -6.6618 -9.0008 -7.80653 -18.3226 -9.3347 -7.40296 -40.8076 -6.25168 -10.138 -20.795 -6.25169 -10.138 -129.238 -48.8557 63.9878 -60.9654 -6.26761 -41.0719 -36.2633 43.3327 -129.148 -20.9138 12.1678 -66.7516 105.877 -2.75323 -81.913 -18.2696 55.7145 -121.908 -173.657 73.0771 179.967 -156.418 -11.1313 -1.81763 144.332 -27.0438 25.094 -69.0295 -45.9444 -18.3123 
256.272 72.7337 258.84 -103.042 1.91265 -65.2398 -126.477 34.553 171.752 172.542 26.3763 178.159 82.5577 7.24212 17.8747 49.141 -0.240731 23.7776 167.794 27.0888 86.311 -69.5855 37.492 23.6008 -136.337 -43.3849 164.709 129.325 36.677 55.9487 -4.05073 16.4878 -94.3667 -6.66894 -9.3543 -9.69001 -18.3393 -9.76988 -9.27081 -40.7167 -6.03352 -12.0289 -20.7041 -6.03354 -12.0289 -128.319 -47.691 65.1008 -60.8463 -0.361771 -41.9293 -24.2293 33.7911 -136.773 -19.7048 12.1237 -69.7776 82.2323 -0.447585 -88.6566 -54.4847 69.1929 -77.2285 -177.962 76.6074 179.987 -154.167 -12.6867 -1.19138 149.692 -13.231 18.5189 -73.4803 -43.9147 -1.36637 
261.495 72.9466 263.454 -100.233 -3.55594 -64.281 -131.144 40.3253 169.768 172.33 18.1982 179.101 97.0183 16.177 17.423 28.16 -3.50896 29.2698 172.565 25.258 81.9969 -64.0997 38.2316 30.5207 -135.362 -46.4419 175.454 125.214 38.0026 59.9549 -4.06751 16.3566 -95.3907 -6.55565 -9.71223 -11.7011 -18.2392 -10.2145 -11.2668 -40.4774 -5.7865 -14.0398 -20.4647 -5.7865 -14.0398 -127.587 -46.4413 66.0988 -60.6333 5.80488 -43.1891 -19.1437 27.9253 -139.135 -19.5388 12.3678 -71.2774 54.5132 2.73798 -95.7743 -112.434 62.0331 -10.4521 175.96 82.8037 -179.952 -151.688 -16.1732 0.0709642 150.841 -5.06594 15.4894 -70.586 -45.8662 7.7155 
